HIERARCHY
ROOT Root
{
  OFFSET 0.0 0.0 0.0
  CHANNELS 6 Xposition Yposition Zposition Zrotation Yrotation Xrotation
  JOINT Hips
  {
    OFFSET 0.0 100.0 0.0
    CHANNELS 6 Xposition Yposition Zposition Zrotation Yrotation Xrotation
    JOINT Spine1
    {
      OFFSET -0.013727 5.003763 -0.053727
      CHANNELS 3 Zrotation Yrotation Xrotation
      JOINT Spine2
      {
        OFFSET -0.0 7.125301 -0.029825
        CHANNELS 3 Zrotation Yrotation Xrotation
        JOINT Chest
        {
          OFFSET -1e-06 7.550063 -0.815971
          CHANNELS 3 Zrotation Yrotation Xrotation
          JOINT Neck1
          {
            OFFSET -0.181677 26.311295 -0.553348
            CHANNELS 3 Zrotation Yrotation Xrotation
            JOINT Neck2
            {
              OFFSET -3e-06 7.709397 2.302585
              CHANNELS 3 Zrotation Yrotation Xrotation
              JOINT Head
              {
                OFFSET -5e-06 6.128916 1.953709
                CHANNELS 3 Zrotation Yrotation Xrotation
                JOINT HeadEnd
                {
                  OFFSET 0.003598 16.065403 -1.835379
                  CHANNELS 3 Zrotation Yrotation Xrotation
                }
                JOINT Jaw
                {
                  OFFSET 0.002637 0.475592 3.094941
                  CHANNELS 3 Zrotation Yrotation Xrotation
                }
                JOINT LeftEye
                {
                  OFFSET 3.206381 5.380205 7.586883
                  CHANNELS 3 Zrotation Yrotation Xrotation
                }
                JOINT RightEye
                {
                  OFFSET -3.22244 5.361869 7.558234
                  CHANNELS 3 Zrotation Yrotation Xrotation
                }
              }
            }
          }
          JOINT LeftShoulder
          {
            OFFSET 1.621652 23.237164 5.113413
            CHANNELS 3 Zrotation Yrotation Xrotation
            JOINT LeftArm
            {
              OFFSET 14.919846 2e-06 -5.502326
              CHANNELS 3 Zrotation Yrotation Xrotation
              JOINT LeftForeArm
              {
                OFFSET 28.739307 0.0 -0.002588
                CHANNELS 3 Zrotation Yrotation Xrotation
                JOINT LeftHand
                {
                  OFFSET 27.093981 -1e-06 0.002609
                  CHANNELS 3 Zrotation Yrotation Xrotation
                  JOINT LeftHandThumb1
                  {
                    OFFSET 2.276482 -1.392045 3.191413
                    CHANNELS 3 Zrotation Yrotation Xrotation
                    JOINT LeftHandThumb2
                    {
                      OFFSET 4.012836 -1.828127 1.641654
                      CHANNELS 3 Zrotation Yrotation Xrotation
                      JOINT LeftHandThumb3
                      {
                        OFFSET 2.798515 0.0 -3e-06
                        CHANNELS 3 Zrotation Yrotation Xrotation
                        JOINT LeftHandThumbEnd
                        {
                          OFFSET 3.180793 -4e-06 4e-06
                          CHANNELS 3 Zrotation Yrotation Xrotation
                        }
                      }
                    }
                  }
                  JOINT LeftHandIndex1
                  {
                    OFFSET 3.247555 -0.531998 2.296169
                    CHANNELS 3 Zrotation Yrotation Xrotation
                    JOINT LeftHandIndex2
                    {
                      OFFSET 6.364578 0.01206 0.1786
                      CHANNELS 3 Zrotation Yrotation Xrotation
                      JOINT LeftHandIndex3
                      {
                        OFFSET 3.662364 0.0 0.0
                        CHANNELS 3 Zrotation Yrotation Xrotation
                        JOINT LeftHandIndex4
                        {
                          OFFSET 2.329242 4e-06 4e-06
                          CHANNELS 3 Zrotation Yrotation Xrotation
                          JOINT LeftHandIndexEnd
                          {
                            OFFSET 2.759615 -0.180537 -0.113024
                            CHANNELS 3 Zrotation Yrotation Xrotation
                          }
                        }
                      }
                    }
                  }
                  JOINT LeftHandMiddle1
                  {
                    OFFSET 3.163495 0.240981 1.000332
                    CHANNELS 3 Zrotation Yrotation Xrotation
                    JOINT LeftHandMiddle2
                    {
                      OFFSET 6.19078 -0.259278 -1.002548
                      CHANNELS 3 Zrotation Yrotation Xrotation
                      JOINT LeftHandMiddle3
                      {
                        OFFSET 4.35652 -4e-06 -1e-06
                        CHANNELS 3 Zrotation Yrotation Xrotation
                        JOINT LeftHandMiddle4
                        {
                          OFFSET 2.996877 -8e-06 0.0
                          CHANNELS 3 Zrotation Yrotation Xrotation
                          JOINT LeftHandMiddleEnd
                          {
                            OFFSET 2.304287 -0.294569 -0.031741
                            CHANNELS 3 Zrotation Yrotation Xrotation
                          }
                        }
                      }
                    }
                  }
                  JOINT LeftHandRing1
                  {
                    OFFSET 2.882643 -0.053652 -0.322543
                    CHANNELS 3 Zrotation Yrotation Xrotation
                    JOINT LeftHandRing2
                    {
                      OFFSET 5.854541 -0.486202 -1.373841
                      CHANNELS 3 Zrotation Yrotation Xrotation
                      JOINT LeftHandRing3
                      {
                        OFFSET 4.350578 0.0 3e-06
                        CHANNELS 3 Zrotation Yrotation Xrotation
                        JOINT LeftHandRing4
                        {
                          OFFSET 2.651321 7e-06 2e-06
                          CHANNELS 3 Zrotation Yrotation Xrotation
                          JOINT LeftHandRingEnd
                          {
                            OFFSET 1.936105 0.077687 -7.1e-05
                            CHANNELS 3 Zrotation Yrotation Xrotation
                          }
                        }
                      }
                    }
                  }
                  JOINT LeftHandPinky1
                  {
                    OFFSET 2.8655 -0.310005 -1.600378
                    CHANNELS 3 Zrotation Yrotation Xrotation
                    JOINT LeftHandPinky2
                    {
                      OFFSET 5.087849 -1.331141 -1.77123
                      CHANNELS 3 Zrotation Yrotation Xrotation
                      JOINT LeftHandPinky3
                      {
                        OFFSET 3.070974 4e-06 0.0
                        CHANNELS 3 Zrotation Yrotation Xrotation
                        JOINT LeftHandPinky4
                        {
                          OFFSET 1.549672 0.0 1e-06
                          CHANNELS 3 Zrotation Yrotation Xrotation
                          JOINT LeftHandPinkyEnd
                          {
                            OFFSET 1.944893 -0.157802 0.057219
                            CHANNELS 3 Zrotation Yrotation Xrotation
                          }
                        }
                      }
                    }
                  }
                }
              }
            }
          }
          JOINT RightShoulder
          {
            OFFSET -1.380118 23.180309 5.214158
            CHANNELS 3 Zrotation Yrotation Xrotation
            JOINT RightArm
            {
              OFFSET -15.037196 1.2e-05 -5.545604
              CHANNELS 3 Zrotation Yrotation Xrotation
              JOINT RightForeArm
              {
                OFFSET -28.736639 2e-06 -0.002597
                CHANNELS 3 Zrotation Yrotation Xrotation
                JOINT RightHand
                {
                  OFFSET -27.133619 -0.0 0.002613
                  CHANNELS 3 Zrotation Yrotation Xrotation
                  JOINT RightHandThumb1
                  {
                    OFFSET -2.274032 -1.383988 3.163127
                    CHANNELS 3 Zrotation Yrotation Xrotation
                    JOINT RightHandThumb2
                    {
                      OFFSET -4.011429 -1.827466 1.640914
                      CHANNELS 3 Zrotation Yrotation Xrotation
                      JOINT RightHandThumb3
                      {
                        OFFSET -2.794935 -4e-06 -3e-06
                        CHANNELS 3 Zrotation Yrotation Xrotation
                        JOINT RightHandThumbEnd
                        {
                          OFFSET -3.183852 4e-06 1e-06
                          CHANNELS 3 Zrotation Yrotation Xrotation
                        }
                      }
                    }
                  }
                  JOINT RightHandIndex1
                  {
                    OFFSET -3.253266 -0.520057 2.282866
                    CHANNELS 3 Zrotation Yrotation Xrotation
                    JOINT RightHandIndex2
                    {
                      OFFSET -6.341917 0.012471 0.178266
                      CHANNELS 3 Zrotation Yrotation Xrotation
                      JOINT RightHandIndex3
                      {
                        OFFSET -3.654871 -8e-06 -0.0
                        CHANNELS 3 Zrotation Yrotation Xrotation
                        JOINT RightHandIndex4
                        {
                          OFFSET -2.327586 0.0 1e-06
                          CHANNELS 3 Zrotation Yrotation Xrotation
                          JOINT RightHandIndexEnd
                          {
                            OFFSET -2.76179 -0.180656 -0.113078
                            CHANNELS 3 Zrotation Yrotation Xrotation
                          }
                        }
                      }
                    }
                  }
                  JOINT RightHandMiddle1
                  {
                    OFFSET -3.168106 0.246593 1.00103
                    CHANNELS 3 Zrotation Yrotation Xrotation
                    JOINT RightHandMiddle2
                    {
                      OFFSET -6.180828 -0.258836 -1.000895
                      CHANNELS 3 Zrotation Yrotation Xrotation
                      JOINT RightHandMiddle3
                      {
                        OFFSET -4.348901 0.0 -0.0
                        CHANNELS 3 Zrotation Yrotation Xrotation
                        JOINT RightHandMiddle4
                        {
                          OFFSET -3.00024 -4e-06 -2e-06
                          CHANNELS 3 Zrotation Yrotation Xrotation
                          JOINT RightHandMiddleEnd
                          {
                            OFFSET -2.30252 -0.29437 -0.031706
                            CHANNELS 3 Zrotation Yrotation Xrotation
                          }
                        }
                      }
                    }
                  }
                  JOINT RightHandRing1
                  {
                    OFFSET -2.88569 -0.067952 -0.308858
                    CHANNELS 3 Zrotation Yrotation Xrotation
                    JOINT RightHandRing2
                    {
                      OFFSET -5.854198 -0.48613 -1.373731
                      CHANNELS 3 Zrotation Yrotation Xrotation
                      JOINT RightHandRing3
                      {
                        OFFSET -4.33881 -4e-06 -0.0
                        CHANNELS 3 Zrotation Yrotation Xrotation
                        JOINT RightHandRing4
                        {
                          OFFSET -2.654903 -4e-06 4e-06
                          CHANNELS 3 Zrotation Yrotation Xrotation
                          JOINT RightHandRingEnd
                          {
                            OFFSET -1.933568 0.077527 -5.2e-05
                            CHANNELS 3 Zrotation Yrotation Xrotation
                          }
                        }
                      }
                    }
                  }
                  JOINT RightHandPinky1
                  {
                    OFFSET -2.866425 -0.342796 -1.584145
                    CHANNELS 3 Zrotation Yrotation Xrotation
                    JOINT RightHandPinky2
                    {
                      OFFSET -5.091371 -1.332055 -1.772385
                      CHANNELS 3 Zrotation Yrotation Xrotation
                      JOINT RightHandPinky3
                      {
                        OFFSET -3.062664 -4e-06 1e-06
                        CHANNELS 3 Zrotation Yrotation Xrotation
                        JOINT RightHandPinky4
                        {
                          OFFSET -1.546529 4e-06 -2e-06
                          CHANNELS 3 Zrotation Yrotation Xrotation
                          JOINT RightHandPinkyEnd
                          {
                            OFFSET -1.945119 -0.157718 0.057211
                            CHANNELS 3 Zrotation Yrotation Xrotation
                          }
                        }
                      }
                    }
                  }
                }
              }
            }
          }
        }
      }
    }
    JOINT LeftLeg
    {
      OFFSET 10.043214 -8.434526 2.595655
      CHANNELS 3 Zrotation Yrotation Xrotation
      JOINT LeftShin
      {
        OFFSET -1e-06 -43.221752 -0.802913
        CHANNELS 3 Zrotation Yrotation Xrotation
        JOINT LeftFoot
        {
          OFFSET 1e-06 -42.155094 -3.481523
          CHANNELS 3 Zrotation Yrotation Xrotation
          JOINT LeftToeBase
          {
            OFFSET 0.0 -5.059472 13.231529
            CHANNELS 3 Zrotation Yrotation Xrotation
            JOINT LeftToeEnd
            {
              OFFSET -0.009607 -1.647619 6.513017
              CHANNELS 3 Zrotation Yrotation Xrotation
            }
          }
        }
      }
    }
    JOINT RightLeg
    {
      OFFSET -10.047278 -8.29526 2.620317
      CHANNELS 3 Zrotation Yrotation Xrotation
      JOINT RightShin
      {
        OFFSET 1e-06 -43.362206 -0.805556
        CHANNELS 3 Zrotation Yrotation Xrotation
        JOINT RightFoot
        {
          OFFSET 2e-06 -42.117393 -3.478398
          CHANNELS 3 Zrotation Yrotation Xrotation
          JOINT RightToeBase
          {
            OFFSET -0.0 -5.079609 13.284196
            CHANNELS 3 Zrotation Yrotation Xrotation
            JOINT RightToeEnd
            {
              OFFSET 0.009532 -1.634378 6.460591
              CHANNELS 3 Zrotation Yrotation Xrotation
            }
          }
        }
      }
    }
  }
}
MOTION
Frames: 4
Frame Time: 0.03333333333333333
0.0 0.0 0.0 0.0 -0.0 0.0 -34.231281 92.433655 852.56665 -0.65997 15.904039 3.876254 -1.132429 -0.826831 12.5092 -0.847674 -1.113684 -0.91771 0.301457 -3.755209 12.30335 4.941798 1.230235 3.733076 -2.006155 -2.838074 -3.52275 -0.962053 -4.353068 -11.756455 7.7e-05 -2.3e-05 6e-06 -0.045464 0.154304 0.007788 0.669993 -3.565927 -10.528623 -0.763905 3.875837 -10.522705 40.962597 -14.498661 -3.439788 31.39467 -59.425365 -100.308365 0.292771 -29.18169 0.020826 20.238142 6.827675 -44.22541 -5.882108 9.861288 0.702591 -10.936873 -0.360574 7.156208 -1e-06 8.774828 -0.0 -15.859257 18.253374 6.302592 -1.844033 2.498504 -2.507278 -10.163602 4.678949 4.621109 -20.97603 -1e-06 2e-06 -21.226292 2.451701 -3.594003 2e-06 -6e-06 0.0 -1.362682 2.240797 -0.746323 -21.334917 0.584912 3.008324 -13.821216 -0.0 1e-06 -23.887173 -0.249075 -0.839485 -60.748604 2.586756 -1.630288 -0.294025 1.679688 0.833256 -14.21821 0.093217 1.300582 -34.212048 -0.287558 0.967168 -20.033215 0.964539 1.212842 1e-06 0.0 -0.0 -3.440389 0.788234 0.501656 -15.928187 -3.167308 2.999709 -6.338828 -0.0 1e-06 -18.123453 3.648186 -4.905672 -5e-06 -0.0 -2e-06 -30.000746 21.901632 -3.856733 -35.154816 55.322453 -114.413963 -2.042498 17.239489 -0.810389 -7.67232 -4.655107 -51.543213 2.24354 -5.255037 -3.180157 14.282887 -0.826594 6.952504 -4e-06 -12.690604 2e-06 15.95089 -18.221035 2.844908 1.665666 -1.955922 -2.878298 4.727798 -4.170588 4.993925 11.020522 4e-06 0.0 12.109051 -3.735716 -2.866783 0.0 1e-06 -0.0 1.291984 -1.92855 -1.498089 14.800127 0.567469 3.86561 14.242568 -1.341736 -6.660654 19.631968 0.143927 -0.648242 49.477375 -0.671524 -6.265867 0.353029 -1.51115 -0.03194 20.222788 3.684312 2.316632 18.78727 5e-06 4e-06 10.751627 -0.47987 1.397908 1e-06 -1e-06 -0.0 3.273805 0.305948 -0.580109 21.486809 11.830374 2.266135 8.162926 2e-06 1e-06 18.39908 -3.798985 -4.940571 3e-06 0.0 -1e-06 16.351885 22.301899 -10.360665 -0.179243 -0.799489 39.911335 -16.974876 -3.014103 -19.371176 1.688258 -2.067583 -1.781365 0.0 0.0 2e-06 -2.523456 -20.346655 -41.17313 0.172901 0.148732 28.298609 8.94239 5.871677 13.562028 -1.415517 0.916786 1.144669 0.0 -0.0 -1e-06 
0.0 0.0 0.0 0.0 -0.0 0.0 -34.198647 92.391136 852.241394 -0.597932 15.895713 3.999016 -1.144381 -0.803435 12.488745 -0.846292 -1.115325 -0.911459 0.279839 -3.757843 12.323002 4.872353 1.245989 3.676637 -1.974948 -2.853209 -3.510759 -0.856558 -4.365306 -11.716958 7.7e-05 -2.3e-05 5e-06 -0.042213 0.148792 0.009786 0.674489 -3.567086 -10.517306 -0.762307 3.866318 -10.508229 40.84108 -14.428394 -3.405452 31.929823 -59.259926 -100.632385 0.262384 -29.149647 0.041582 20.196983 6.85327 -43.927567 -5.882103 9.861287 0.702592 -10.936867 -0.360575 7.156207 0.0 8.774827 -0.0 -15.81735 18.178719 6.25701 -1.844032 2.498505 -2.507277 -10.163596 4.678947 4.621111 -20.976017 -2e-06 4e-06 -21.226278 2.4517 -3.593999 2e-06 -6e-06 -0.0 -1.362681 2.240798 -0.746323 -21.334906 0.584909 3.008327 -13.82121 -1e-06 2e-06 -23.887159 -0.249076 -0.839482 -60.61216 2.572572 -1.614441 -0.294025 1.679688 0.833256 -14.218203 0.093215 1.300583 -34.212036 -0.28756 0.967174 -20.033209 0.964539 1.212844 0.0 -0.0 -0.0 -3.440387 0.788233 0.501656 -15.928183 -3.16731 2.999709 -6.338825 -1e-06 2e-06 -18.123444 3.648183 -4.905667 -5e-06 -0.0 -1e-06 -29.967192 21.773743 -3.832726 -35.068638 55.150642 -114.359947 -1.848607 17.462738 -0.79084 -7.723829 -4.668534 -51.33952 2.243542 -5.255037 -3.180156 14.282889 -0.826594 6.952501 -3e-06 -12.690605 1e-06 15.96916 -18.171944 2.853311 1.665666 -1.955921 -2.878298 4.727798 -4.170588 4.993923 11.020523 3e-06 -1e-06 12.10905 -3.735716 -2.866784 0.0 1e-06 0.0 1.291986 -1.92855 -1.498089 14.800125 0.567469 3.865606 14.242568 -1.341737 -6.660657 19.631968 0.143926 -0.648244 49.521812 -0.673751 -6.2678 0.35303 -1.51115 -0.03194 20.222786 3.68431 2.31663 18.78727 4e-06 0.0 10.751624 -0.479868 1.397905 1e-06 -1e-06 0.0 3.273807 0.305947 -0.58011 21.486809 11.830377 2.266135 8.162926 2e-06 -1e-06 18.399076 -3.798985 -4.940575 3e-06 0.0 -1e-06 16.035431 22.189373 -10.866683 -0.172889 -0.77003 40.206985 -16.752806 -2.862964 -19.701658 1.683287 -2.076848 -1.668201 -0.0 -1e-06 2e-06 -2.588024 -20.291168 -41.287231 0.168353 0.128237 27.857506 9.030397 5.809479 13.948499 -1.419112 0.925107 1.074472 0.0 -0.0 -1e-06 
0.0 0.0 0.0 0.0 -0.0 0.0 -34.166164 92.314758 851.939209 -0.548325 15.883529 4.04449 -1.146853 -0.764209 12.460198 -0.854147 -1.120757 -0.887879 0.276439 -3.788739 12.357104 4.796232 1.231248 3.643378 -1.94269 -2.846459 -3.497805 -0.764799 -4.356375 -11.697758 7.7e-05 -2.3e-05 5e-06 -0.039353 0.142619 0.013419 0.680112 -3.567134 -10.498721 -0.762637 3.854687 -10.483741 40.714973 -14.402983 -3.391449 32.263836 -59.182156 -100.747787 0.278298 -29.143406 0.053967 20.189379 6.869501 -43.697418 -5.882113 9.861297 0.702591 -10.936883 -0.360574 7.156216 -1e-06 8.774836 -2e-06 -15.782571 18.096291 6.215321 -1.844034 2.498508 -2.507279 -10.163611 4.67895 4.621115 -20.976046 1e-06 7e-06 -21.226309 2.451704 -3.594003 2e-06 -6e-06 0.0 -1.362683 2.240801 -0.746324 -21.334934 0.584913 3.00833 -13.821228 -0.0 4e-06 -23.887192 -0.249074 -0.839481 -60.51025 2.531082 -1.602609 -0.294025 1.679688 0.833257 -14.218223 0.093215 1.300585 -34.212078 -0.287558 0.967177 -20.033232 0.964542 1.212846 0.0 -0.0 -0.0 -3.440392 0.788234 0.501657 -15.928203 -3.167311 2.999713 -6.338833 0.0 2e-06 -18.123468 3.648189 -4.905673 -4e-06 -0.0 -2e-06 -29.947971 21.683632 -3.822789 -34.820683 55.045147 -114.134682 -1.654339 17.64728 -0.756632 -7.780401 -4.649523 -51.257046 2.243541 -5.255039 -3.180158 14.282896 -0.826597 6.952509 -2e-06 -12.690615 2e-06 15.979356 -18.108652 2.862253 1.665666 -1.955922 -2.8783 4.727803 -4.170591 4.993928 11.02053 2e-06 0.0 12.109053 -3.735719 -2.866784 0.0 0.0 -0.0 1.291986 -1.928551 -1.49809 14.800136 0.567467 3.865614 14.242578 -1.341739 -6.660661 19.631975 0.143923 -0.648243 49.54781 -0.68378 -6.260942 0.353028 -1.511152 -0.03194 20.222801 3.684309 2.316635 18.787283 1e-06 3e-06 10.751634 -0.479871 1.397908 -0.0 -1e-06 0.0 3.273807 0.305947 -0.58011 21.48682 11.830382 2.266138 8.16293 0.0 1e-06 18.39909 -3.798992 -4.940575 4e-06 0.0 -1e-06 15.798952 22.127254 -11.285775 -0.170349 -0.742803 40.559189 -16.475218 -2.781799 -20.078362 1.679692 -2.088831 -1.532641 -0.0 0.0 2e-06 -2.645227 -20.289932 -41.372017 0.171194 0.1076 27.536179 9.098338 5.769506 14.204164 -1.4195 0.933631 1.033146 0.0 -0.0 -1e-06 
0.0 0.0 0.0 0.0 -0.0 0.0 -34.142597 92.236641 851.67981 -0.506933 15.882406 4.048309 -1.142766 -0.725583 12.43168 -0.858336 -1.142578 -0.859577 0.27484 -3.824281 12.379964 4.728829 1.183311 3.637173 -1.922751 -2.796663 -3.484504 -0.700181 -4.348689 -11.676742 7.7e-05 -2.3e-05 5e-06 -0.036986 0.137843 0.016621 0.685167 -3.567878 -10.482889 -0.763199 3.846387 -10.461717 40.682095 -14.417871 -3.47065 32.221954 -59.218479 -100.535011 0.333333 -29.15802 0.053408 20.215881 6.894279 -43.574539 -5.882108 9.861291 0.702591 -10.936876 -0.360576 7.156211 -0.0 8.774828 -2e-06 -15.748755 18.04047 6.199631 -1.844032 2.498507 -2.507278 -10.163603 4.678944 4.621112 -20.976028 -1e-06 6e-06 -21.226288 2.451702 -3.593998 2e-06 -6e-06 -0.0 -1.362682 2.240799 -0.746324 -21.334921 0.584911 3.00833 -13.821215 -1e-06 4e-06 -23.887175 -0.249075 -0.83948 -60.472145 2.487611 -1.577921 -0.294025 1.679689 0.833256 -14.218213 0.093217 1.300584 -34.212055 -0.28756 0.967178 -20.033218 0.96454 1.212846 0.0 -0.0 -0.0 -3.44039 0.788233 0.501656 -15.928192 -3.167311 2.999712 -6.338829 -1e-06 3e-06 -18.123453 3.648187 -4.90567 -5e-06 1e-06 -2e-06 -29.934202 21.644674 -3.823915 -34.476341 54.995567 -113.809296 -1.482805 17.776798 -0.708854 -7.834999 -4.666677 -51.342876 2.243541 -5.255042 -3.180159 14.282903 -0.826596 6.952512 -2e-06 -12.690618 0.0 15.977534 -18.068586 2.880778 1.665666 -1.955923 -2.878301 4.727801 -4.170591 4.993928 11.020529 3e-06 1e-06 12.109058 -3.735719 -2.866785 0.0 1e-06 -0.0 1.291986 -1.928551 -1.498091 14.800138 0.567469 3.865615 14.242582 -1.341739 -6.66066 19.631979 0.143924 -0.648241 49.554897 -0.698224 -6.225786 0.35303 -1.511152 -0.03194 20.222803 3.684314 2.316637 18.787287 3e-06 5e-06 10.751636 -0.479869 1.39791 1e-06 -0.0 0.0 3.273809 0.305947 -0.58011 21.48683 11.830386 2.266143 8.16293 1e-06 2e-06 18.399094 -3.79899 -4.940575 4e-06 0.0 -1e-06 15.626619 22.10376 -11.60534 -0.171058 -0.719797 40.860607 -16.2216 -2.741289 -20.427561 1.679625 -2.096726 -1.391524 0.0 0.0 2e-06 -2.671362 -20.36253 -41.43737 0.179617 0.099809 27.302582 9.153478 5.719217 14.392923 -1.416237 0.93964 1.030595 -0.0 -0.0 -1e-06 
